<?xml version="1.0" encoding="iso-8859-1"?>
<!-- Uploaded to: SVG Repo, www.svgrepo.com, Generator: SVG Repo Mixer Tools -->
<svg fill="#000000" version="1.1" id="Layer_1" xmlns="http://www.w3.org/2000/svg" xmlns:xlink="http://www.w3.org/1999/xlink" 
	 viewBox="0 0 512 512" xml:space="preserve">
<g>
	<g>
		<path d="M503.467,443.733h-25.6V204.8c0-5.12-3.413-8.533-8.533-8.533H460.8v-25.6c0-5.12-3.413-8.533-8.533-8.533h-102.4
			c-5.12,0-8.533,3.413-8.533,8.533v25.6h-17.067v-25.6c0-2.56-0.853-5.12-2.56-6.827l-57.173-47.787v-30.72h59.733
			c5.12,0,8.533-3.413,8.533-8.533V25.6c0-5.12-3.413-8.533-8.533-8.533H256c-5.12,0-8.533,3.413-8.533,8.533v51.2v38.4
			l-57.173,48.64c-1.707,1.707-2.56,4.267-2.56,6.827v25.6h-17.067v-25.6c0-5.12-3.413-8.533-8.533-8.533h-102.4
			c-5.12,0-8.533,3.413-8.533,8.533v25.6h-8.533c-5.12,0-8.533,3.413-8.533,8.533v238.933h-25.6c-5.12,0-8.533,3.413-8.533,8.533
			V486.4c0,5.12,3.413,8.533,8.533,8.533h187.733h25.6V384c0-18.773,15.36-34.133,34.133-34.133
			c18.773,0,34.133,15.36,34.133,34.133v110.933h25.6h187.733c5.12,0,8.533-3.413,8.533-8.533v-34.133
			C512,448,508.587,443.733,503.467,443.733z M162.133,307.2c0,5.12-3.413,8.533-8.533,8.533h-17.067H102.4H85.333
			c-5.12,0-8.533-3.413-8.533-8.533s3.413-8.533,8.533-8.533h8.533v-51.2c0-5.12,3.413-8.533,8.533-8.533h34.133
			c5.12,0,8.533,3.413,8.533,8.533v51.2h8.533C158.72,298.667,162.133,302.933,162.133,307.2z M153.6,401.067
			c5.12,0,8.533,3.413,8.533,8.533c0,5.12-3.413,8.533-8.533,8.533h-17.067H102.4H85.333c-5.12,0-8.533-3.413-8.533-8.533
			c0-5.12,3.413-8.533,8.533-8.533h8.533v-51.2c0-5.12,3.413-8.533,8.533-8.533h34.133c5.12,0,8.533,3.413,8.533,8.533v51.2H153.6z
			 M68.267,179.2H153.6v17.067H68.267V179.2z M187.733,477.867H17.067V460.8h25.6h145.067V477.867z M290.133,315.733h-17.067
			h-34.133h-17.067c-5.12,0-8.533-3.413-8.533-8.533s3.413-8.533,8.533-8.533h8.533v-51.2c0-5.12,3.413-8.533,8.533-8.533h34.133
			c5.12,0,8.533,3.413,8.533,8.533v51.2h8.533c5.12,0,8.533,3.413,8.533,8.533S295.253,315.733,290.133,315.733z M358.4,179.2
			h85.333v17.067H358.4V179.2z M358.4,298.667h8.533v-51.2c0-5.12,3.413-8.533,8.533-8.533H409.6c5.12,0,8.533,3.413,8.533,8.533
			v51.2h8.533c5.12,0,8.533,3.413,8.533,8.533s-3.413,8.533-8.533,8.533H409.6h-34.133H358.4c-5.12,0-8.533-3.413-8.533-8.533
			S353.28,298.667,358.4,298.667z M358.4,401.067h8.533v-51.2c0-5.12,3.413-8.533,8.533-8.533H409.6c5.12,0,8.533,3.413,8.533,8.533
			v51.2h8.533c5.12,0,8.533,3.413,8.533,8.533c0,5.12-3.413,8.533-8.533,8.533H409.6h-34.133H358.4c-5.12,0-8.533-3.413-8.533-8.533
			C349.867,404.48,353.28,401.067,358.4,401.067z M494.933,477.867H324.267V460.8h145.067h25.6V477.867z"/>
	</g>
</g>
<g>
	<g>
		<rect x="384" y="358.4" width="17.067" height="42.667"/>
	</g>
</g>
<g>
	<g>
		<rect x="110.933" y="256" width="17.067" height="42.667"/>
	</g>
</g>
<g>
	<g>
		<rect x="110.933" y="358.4" width="17.067" height="42.667"/>
	</g>
</g>
<g>
	<g>
		<rect x="247.467" y="256" width="17.067" height="42.667"/>
	</g>
</g>
<g>
	<g>
		<rect x="384" y="256" width="17.067" height="42.667"/>
	</g>
</g>
<g>
	<g>
		<path d="M256,366.933c-9.387,0-17.067,7.68-17.067,17.067v110.933h34.133V384C273.067,374.613,265.387,366.933,256,366.933z"/>
	</g>
</g>
</svg>